<svg xmlns="http://www.w3.org/2000/svg" xmlns:xlink="http://www.w3.org/1999/xlink" width="194" zoomAndPan="magnify" viewBox="0 0 145.5 40.499999" height="54" preserveAspectRatio="xMidYMid meet" version="1.0"><defs><g/></defs><g fill="#000000" fill-opacity="1"><g transform="translate(12.939129, 23.977529)"><g><path d="M 26.671875 -20.8125 L 26.671875 -20.234375 C 26.296875 -20.148438 25.882812 -19.925781 25.4375 -19.5625 C 24.988281 -19.207031 24.625 -18.578125 24.34375 -17.671875 L 18.796875 0.140625 C 18.753906 0.140625 18.710938 0.140625 18.671875 0.140625 C 18.628906 0.140625 18.59375 0.140625 18.5625 0.140625 C 18.519531 0.140625 18.476562 0.140625 18.4375 0.140625 C 18.394531 0.140625 18.351562 0.140625 18.3125 0.140625 L 12.09375 -18.34375 C 11.832031 -19.113281 11.546875 -19.613281 11.234375 -19.84375 C 10.921875 -20.082031 10.625 -20.210938 10.34375 -20.234375 L 10.34375 -20.8125 C 10.695312 -20.800781 11.140625 -20.785156 11.671875 -20.765625 C 12.203125 -20.742188 12.710938 -20.734375 13.203125 -20.734375 C 13.960938 -20.734375 14.675781 -20.742188 15.34375 -20.765625 C 16.007812 -20.785156 16.550781 -20.800781 16.96875 -20.8125 L 16.96875 -20.234375 C 16.375 -20.210938 15.90625 -20.148438 15.5625 -20.046875 C 15.226562 -19.953125 15.035156 -19.738281 14.984375 -19.40625 C 14.929688 -19.070312 15.023438 -18.523438 15.265625 -17.765625 L 19.640625 -4.203125 L 19.234375 -3.859375 L 23.109375 -16.0625 C 23.460938 -17.132812 23.625 -17.96875 23.59375 -18.5625 C 23.5625 -19.164062 23.335938 -19.585938 22.921875 -19.828125 C 22.515625 -20.078125 21.898438 -20.210938 21.078125 -20.234375 L 21.078125 -20.8125 C 21.648438 -20.800781 22.226562 -20.785156 22.8125 -20.765625 C 23.40625 -20.742188 23.957031 -20.734375 24.46875 -20.734375 C 24.976562 -20.734375 25.398438 -20.742188 25.734375 -20.765625 C 26.066406 -20.785156 26.378906 -20.800781 26.671875 -20.8125 Z M 6.109375 -20.8125 L 6.109375 -20.234375 C 5.609375 -20.191406 5.242188 -20.09375 5.015625 -19.9375 C 4.785156 -19.78125 4.675781 -19.53125 4.6875 -19.1875 C 4.695312 -18.84375 4.800781 -18.367188 5 -17.765625 L 9.5625 -3.859375 L 8.828125 -3.109375 L 12.9375 -16.265625 L 13.375 -15.5625 L 8.53125 0.140625 C 8.488281 0.140625 8.445312 0.140625 8.40625 0.140625 C 8.363281 0.140625 8.328125 0.140625 8.296875 0.140625 C 8.253906 0.140625 8.210938 0.140625 8.171875 0.140625 C 8.128906 0.140625 8.09375 0.140625 8.0625 0.140625 L 1.828125 -18.34375 C 1.566406 -19.113281 1.238281 -19.613281 0.84375 -19.84375 C 0.457031 -20.082031 0.109375 -20.210938 -0.203125 -20.234375 L -0.203125 -20.8125 C 0.179688 -20.800781 0.664062 -20.785156 1.25 -20.765625 C 1.832031 -20.742188 2.394531 -20.734375 2.9375 -20.734375 C 3.582031 -20.734375 4.1875 -20.742188 4.75 -20.765625 C 5.3125 -20.785156 5.765625 -20.800781 6.109375 -20.8125 Z M 6.109375 -20.8125 "/></g></g></g><g fill="#000000" fill-opacity="1"><g transform="translate(41.018663, 23.977529)"><g><path d="M 4.203125 -22.5 C 4.710938 -22.5 5.15625 -22.3125 5.53125 -21.9375 C 5.90625 -21.5625 6.09375 -21.117188 6.09375 -20.609375 C 6.09375 -20.097656 5.90625 -19.65625 5.53125 -19.28125 C 5.15625 -18.914062 4.710938 -18.734375 4.203125 -18.734375 C 3.691406 -18.734375 3.25 -18.914062 2.875 -19.28125 C 2.507812 -19.65625 2.328125 -20.097656 2.328125 -20.609375 C 2.328125 -21.117188 2.507812 -21.5625 2.875 -21.9375 C 3.25 -22.3125 3.691406 -22.5 4.203125 -22.5 Z M 5.734375 -15.46875 L 5.734375 -2.734375 C 5.734375 -1.910156 5.90625 -1.351562 6.25 -1.0625 C 6.59375 -0.769531 7.164062 -0.625 7.96875 -0.625 L 7.96875 0 C 7.632812 -0.0195312 7.128906 -0.046875 6.453125 -0.078125 C 5.773438 -0.109375 5.09375 -0.125 4.40625 -0.125 C 3.738281 -0.125 3.0625 -0.109375 2.375 -0.078125 C 1.695312 -0.046875 1.191406 -0.0195312 0.859375 0 L 0.859375 -0.625 C 1.660156 -0.625 2.234375 -0.769531 2.578125 -1.0625 C 2.921875 -1.351562 3.09375 -1.910156 3.09375 -2.734375 L 3.09375 -11.9375 C 3.09375 -12.820312 2.929688 -13.472656 2.609375 -13.890625 C 2.296875 -14.316406 1.710938 -14.53125 0.859375 -14.53125 L 0.859375 -15.140625 C 1.484375 -15.085938 2.085938 -15.0625 2.671875 -15.0625 C 3.242188 -15.0625 3.789062 -15.09375 4.3125 -15.15625 C 4.832031 -15.226562 5.304688 -15.332031 5.734375 -15.46875 Z M 5.734375 -15.46875 "/></g></g></g><g fill="#000000" fill-opacity="1"><g transform="translate(51.809536, 23.977529)"><g><path d="M 10.734375 -15.5625 C 11.472656 -15.5625 12.09375 -15.460938 12.59375 -15.265625 C 13.09375 -15.066406 13.507812 -14.789062 13.84375 -14.4375 C 14.21875 -14.039062 14.484375 -13.550781 14.640625 -12.96875 C 14.796875 -12.382812 14.875 -11.59375 14.875 -10.59375 L 14.875 -2.734375 C 14.875 -1.910156 15.046875 -1.351562 15.390625 -1.0625 C 15.734375 -0.769531 16.304688 -0.625 17.109375 -0.625 L 17.109375 0 C 16.773438 -0.0195312 16.265625 -0.046875 15.578125 -0.078125 C 14.898438 -0.109375 14.234375 -0.125 13.578125 -0.125 C 12.929688 -0.125 12.300781 -0.109375 11.6875 -0.078125 C 11.070312 -0.046875 10.609375 -0.0195312 10.296875 0 L 10.296875 -0.625 C 10.992188 -0.625 11.488281 -0.769531 11.78125 -1.0625 C 12.082031 -1.351562 12.234375 -1.910156 12.234375 -2.734375 L 12.234375 -11.234375 C 12.234375 -11.835938 12.179688 -12.394531 12.078125 -12.90625 C 11.984375 -13.414062 11.765625 -13.828125 11.421875 -14.140625 C 11.078125 -14.453125 10.550781 -14.609375 9.84375 -14.609375 C 9.019531 -14.609375 8.300781 -14.375 7.6875 -13.90625 C 7.070312 -13.4375 6.59375 -12.796875 6.25 -11.984375 C 5.90625 -11.171875 5.734375 -10.265625 5.734375 -9.265625 L 5.734375 -2.734375 C 5.734375 -1.910156 5.878906 -1.351562 6.171875 -1.0625 C 6.460938 -0.769531 6.960938 -0.625 7.671875 -0.625 L 7.671875 0 C 7.359375 -0.0195312 6.894531 -0.046875 6.28125 -0.078125 C 5.664062 -0.109375 5.03125 -0.125 4.375 -0.125 C 3.726562 -0.125 3.0625 -0.109375 2.375 -0.078125 C 1.695312 -0.046875 1.191406 -0.0195312 0.859375 0 L 0.859375 -0.625 C 1.660156 -0.625 2.234375 -0.769531 2.578125 -1.0625 C 2.921875 -1.351562 3.09375 -1.910156 3.09375 -2.734375 L 3.09375 -11.9375 C 3.09375 -12.820312 2.929688 -13.472656 2.609375 -13.890625 C 2.296875 -14.316406 1.710938 -14.53125 0.859375 -14.53125 L 0.859375 -15.140625 C 1.484375 -15.085938 2.085938 -15.0625 2.671875 -15.0625 C 3.242188 -15.0625 3.789062 -15.09375 4.3125 -15.15625 C 4.832031 -15.226562 5.304688 -15.332031 5.734375 -15.46875 L 5.734375 -12 C 6.242188 -13.332031 6.953125 -14.257812 7.859375 -14.78125 C 8.773438 -15.300781 9.734375 -15.5625 10.734375 -15.5625 Z M 10.734375 -15.5625 "/></g></g></g><g fill="#000000" fill-opacity="1"><g transform="translate(70.039163, 23.977529)"><g><path d="M 26.671875 -20.8125 L 26.671875 -20.234375 C 26.296875 -20.148438 25.882812 -19.925781 25.4375 -19.5625 C 24.988281 -19.207031 24.625 -18.578125 24.34375 -17.671875 L 18.796875 0.140625 C 18.753906 0.140625 18.710938 0.140625 18.671875 0.140625 C 18.628906 0.140625 18.59375 0.140625 18.5625 0.140625 C 18.519531 0.140625 18.476562 0.140625 18.4375 0.140625 C 18.394531 0.140625 18.351562 0.140625 18.3125 0.140625 L 12.09375 -18.34375 C 11.832031 -19.113281 11.546875 -19.613281 11.234375 -19.84375 C 10.921875 -20.082031 10.625 -20.210938 10.34375 -20.234375 L 10.34375 -20.8125 C 10.695312 -20.800781 11.140625 -20.785156 11.671875 -20.765625 C 12.203125 -20.742188 12.710938 -20.734375 13.203125 -20.734375 C 13.960938 -20.734375 14.675781 -20.742188 15.34375 -20.765625 C 16.007812 -20.785156 16.550781 -20.800781 16.96875 -20.8125 L 16.96875 -20.234375 C 16.375 -20.210938 15.90625 -20.148438 15.5625 -20.046875 C 15.226562 -19.953125 15.035156 -19.738281 14.984375 -19.40625 C 14.929688 -19.070312 15.023438 -18.523438 15.265625 -17.765625 L 19.640625 -4.203125 L 19.234375 -3.859375 L 23.109375 -16.0625 C 23.460938 -17.132812 23.625 -17.96875 23.59375 -18.5625 C 23.5625 -19.164062 23.335938 -19.585938 22.921875 -19.828125 C 22.515625 -20.078125 21.898438 -20.210938 21.078125 -20.234375 L 21.078125 -20.8125 C 21.648438 -20.800781 22.226562 -20.785156 22.8125 -20.765625 C 23.40625 -20.742188 23.957031 -20.734375 24.46875 -20.734375 C 24.976562 -20.734375 25.398438 -20.742188 25.734375 -20.765625 C 26.066406 -20.785156 26.378906 -20.800781 26.671875 -20.8125 Z M 6.109375 -20.8125 L 6.109375 -20.234375 C 5.609375 -20.191406 5.242188 -20.09375 5.015625 -19.9375 C 4.785156 -19.78125 4.675781 -19.53125 4.6875 -19.1875 C 4.695312 -18.84375 4.800781 -18.367188 5 -17.765625 L 9.5625 -3.859375 L 8.828125 -3.109375 L 12.9375 -16.265625 L 13.375 -15.5625 L 8.53125 0.140625 C 8.488281 0.140625 8.445312 0.140625 8.40625 0.140625 C 8.363281 0.140625 8.328125 0.140625 8.296875 0.140625 C 8.253906 0.140625 8.210938 0.140625 8.171875 0.140625 C 8.128906 0.140625 8.09375 0.140625 8.0625 0.140625 L 1.828125 -18.34375 C 1.566406 -19.113281 1.238281 -19.613281 0.84375 -19.84375 C 0.457031 -20.082031 0.109375 -20.210938 -0.203125 -20.234375 L -0.203125 -20.8125 C 0.179688 -20.800781 0.664062 -20.785156 1.25 -20.765625 C 1.832031 -20.742188 2.394531 -20.734375 2.9375 -20.734375 C 3.582031 -20.734375 4.1875 -20.742188 4.75 -20.765625 C 5.3125 -20.785156 5.765625 -20.800781 6.109375 -20.8125 Z M 6.109375 -20.8125 "/></g></g></g><g fill="#000000" fill-opacity="1"><g transform="translate(96.795502, 23.977529)"><g><path d="M 8 -15.5625 C 9.726562 -15.5625 11.078125 -15.035156 12.046875 -13.984375 C 13.015625 -12.929688 13.5 -11.300781 13.5 -9.09375 L 3.109375 -9.09375 L 3.09375 -9.640625 L 10.671875 -9.640625 C 10.710938 -10.609375 10.632812 -11.5 10.4375 -12.3125 C 10.238281 -13.125 9.925781 -13.773438 9.5 -14.265625 C 9.082031 -14.753906 8.539062 -15 7.875 -15 C 6.976562 -15 6.179688 -14.546875 5.484375 -13.640625 C 4.785156 -12.742188 4.367188 -11.3125 4.234375 -9.34375 L 4.328125 -9.234375 C 4.285156 -8.941406 4.253906 -8.617188 4.234375 -8.265625 C 4.210938 -7.910156 4.203125 -7.554688 4.203125 -7.203125 C 4.203125 -5.867188 4.414062 -4.722656 4.84375 -3.765625 C 5.28125 -2.804688 5.847656 -2.078125 6.546875 -1.578125 C 7.242188 -1.078125 7.960938 -0.828125 8.703125 -0.828125 C 9.296875 -0.828125 9.851562 -0.914062 10.375 -1.09375 C 10.90625 -1.28125 11.394531 -1.585938 11.84375 -2.015625 C 12.300781 -2.453125 12.695312 -3.035156 13.03125 -3.765625 L 13.609375 -3.53125 C 13.398438 -2.882812 13.050781 -2.253906 12.5625 -1.640625 C 12.070312 -1.035156 11.453125 -0.539062 10.703125 -0.15625 C 9.960938 0.21875 9.097656 0.40625 8.109375 0.40625 C 6.703125 0.40625 5.492188 0.0820312 4.484375 -0.5625 C 3.472656 -1.207031 2.695312 -2.101562 2.15625 -3.25 C 1.625 -4.394531 1.359375 -5.710938 1.359375 -7.203125 C 1.359375 -8.929688 1.628906 -10.414062 2.171875 -11.65625 C 2.722656 -12.90625 3.5 -13.867188 4.5 -14.546875 C 5.5 -15.222656 6.664062 -15.5625 8 -15.5625 Z M 8 -15.5625 "/></g></g></g><g fill="#000000" fill-opacity="1"><g transform="translate(113.849119, 23.977529)"><g><path d="M 8 -15.5625 C 9.726562 -15.5625 11.078125 -15.035156 12.046875 -13.984375 C 13.015625 -12.929688 13.5 -11.300781 13.5 -9.09375 L 3.109375 -9.09375 L 3.09375 -9.640625 L 10.671875 -9.640625 C 10.710938 -10.609375 10.632812 -11.5 10.4375 -12.3125 C 10.238281 -13.125 9.925781 -13.773438 9.5 -14.265625 C 9.082031 -14.753906 8.539062 -15 7.875 -15 C 6.976562 -15 6.179688 -14.546875 5.484375 -13.640625 C 4.785156 -12.742188 4.367188 -11.3125 4.234375 -9.34375 L 4.328125 -9.234375 C 4.285156 -8.941406 4.253906 -8.617188 4.234375 -8.265625 C 4.210938 -7.910156 4.203125 -7.554688 4.203125 -7.203125 C 4.203125 -5.867188 4.414062 -4.722656 4.84375 -3.765625 C 5.28125 -2.804688 5.847656 -2.078125 6.546875 -1.578125 C 7.242188 -1.078125 7.960938 -0.828125 8.703125 -0.828125 C 9.296875 -0.828125 9.851562 -0.914062 10.375 -1.09375 C 10.90625 -1.28125 11.394531 -1.585938 11.84375 -2.015625 C 12.300781 -2.453125 12.695312 -3.035156 13.03125 -3.765625 L 13.609375 -3.53125 C 13.398438 -2.882812 13.050781 -2.253906 12.5625 -1.640625 C 12.070312 -1.035156 11.453125 -0.539062 10.703125 -0.15625 C 9.960938 0.21875 9.097656 0.40625 8.109375 0.40625 C 6.703125 0.40625 5.492188 0.0820312 4.484375 -0.5625 C 3.472656 -1.207031 2.695312 -2.101562 2.15625 -3.25 C 1.625 -4.394531 1.359375 -5.710938 1.359375 -7.203125 C 1.359375 -8.929688 1.628906 -10.414062 2.171875 -11.65625 C 2.722656 -12.90625 3.5 -13.867188 4.5 -14.546875 C 5.5 -15.222656 6.664062 -15.5625 8 -15.5625 Z M 8 -15.5625 "/></g></g></g><g fill="#000000" fill-opacity="1"><g transform="translate(86.037204, 37.744471)"><g><path d="M 0.734375 -9.578125 C 0.515625 -9.640625 0.382812 -9.78125 0.34375 -10 C 0.289062 -10.144531 0.304688 -10.304688 0.390625 -10.484375 C 0.484375 -10.660156 0.617188 -10.757812 0.796875 -10.78125 C 1.828125 -10.9375 2.859375 -11.019531 3.890625 -11.03125 C 4.921875 -11.050781 5.957031 -11.066406 7 -11.078125 C 7.207031 -11.078125 7.363281 -11.007812 7.46875 -10.875 C 7.570312 -10.75 7.625 -10.609375 7.625 -10.453125 C 7.625 -10.296875 7.570312 -10.148438 7.46875 -10.015625 C 7.363281 -9.878906 7.207031 -9.8125 7 -9.8125 C 6.175781 -9.789062 5.34375 -9.78125 4.5 -9.78125 C 3.664062 -9.78125 2.828125 -9.738281 1.984375 -9.65625 C 2.003906 -9.238281 2.03125 -8.816406 2.0625 -8.390625 C 2.09375 -7.972656 2.128906 -7.550781 2.171875 -7.125 C 2.972656 -7.164062 3.773438 -7.21875 4.578125 -7.28125 C 5.378906 -7.351562 6.179688 -7.367188 6.984375 -7.328125 C 7.179688 -7.316406 7.332031 -7.238281 7.4375 -7.09375 C 7.550781 -6.957031 7.609375 -6.804688 7.609375 -6.640625 C 7.609375 -6.484375 7.550781 -6.34375 7.4375 -6.21875 C 7.332031 -6.09375 7.179688 -6.035156 6.984375 -6.046875 C 6.191406 -6.085938 5.40625 -6.078125 4.625 -6.015625 C 3.84375 -5.953125 3.054688 -5.898438 2.265625 -5.859375 C 2.328125 -5.085938 2.382812 -4.320312 2.4375 -3.5625 C 2.5 -2.8125 2.539062 -2.054688 2.5625 -1.296875 C 2.9375 -1.378906 3.3125 -1.457031 3.6875 -1.53125 C 4.070312 -1.613281 4.453125 -1.675781 4.828125 -1.71875 C 5.210938 -1.769531 5.597656 -1.796875 5.984375 -1.796875 C 6.367188 -1.796875 6.75 -1.765625 7.125 -1.703125 C 7.300781 -1.671875 7.429688 -1.566406 7.515625 -1.390625 C 7.597656 -1.222656 7.617188 -1.066406 7.578125 -0.921875 C 7.523438 -0.742188 7.421875 -0.617188 7.265625 -0.546875 C 7.117188 -0.472656 6.957031 -0.453125 6.78125 -0.484375 C 6.4375 -0.546875 6.085938 -0.566406 5.734375 -0.546875 C 5.390625 -0.523438 5.046875 -0.488281 4.703125 -0.4375 C 4.316406 -0.363281 3.925781 -0.285156 3.53125 -0.203125 C 3.144531 -0.117188 2.765625 -0.03125 2.390625 0.0625 C 2.203125 0.101562 2.03125 0.0703125 1.875 -0.03125 C 1.726562 -0.0507812 1.597656 -0.109375 1.484375 -0.203125 C 1.367188 -0.296875 1.3125 -0.441406 1.3125 -0.640625 C 1.28125 -1.535156 1.234375 -2.421875 1.171875 -3.296875 C 1.117188 -4.179688 1.054688 -5.070312 0.984375 -5.96875 C 0.867188 -6.082031 0.800781 -6.226562 0.78125 -6.40625 C 0.769531 -6.582031 0.816406 -6.734375 0.921875 -6.859375 C 0.835938 -7.765625 0.773438 -8.671875 0.734375 -9.578125 Z M 0.734375 -9.578125 "/></g></g></g><g fill="#000000" fill-opacity="1"><g transform="translate(94.572552, 37.744471)"><g><path d="M 1.75 -0.203125 C 1.75 -0.00390625 1.679688 0.140625 1.546875 0.234375 C 1.421875 0.335938 1.273438 0.390625 1.109375 0.390625 C 0.953125 0.390625 0.8125 0.335938 0.6875 0.234375 C 0.5625 0.140625 0.5 -0.00390625 0.5 -0.203125 C 0.5 -1.035156 0.59375 -1.832031 0.78125 -2.59375 C 0.96875 -3.351562 1.207031 -4.113281 1.5 -4.875 C 1.425781 -5.007812 1.40625 -5.160156 1.4375 -5.328125 C 1.5 -5.554688 1.632812 -5.695312 1.84375 -5.75 C 2.0625 -6.257812 2.28125 -6.765625 2.5 -7.265625 C 2.726562 -7.765625 2.945312 -8.269531 3.15625 -8.78125 C 3.375 -9.289062 3.570312 -9.804688 3.75 -10.328125 C 3.9375 -10.847656 4.085938 -11.378906 4.203125 -11.921875 C 4.234375 -12.078125 4.296875 -12.210938 4.390625 -12.328125 C 4.492188 -12.453125 4.640625 -12.515625 4.828125 -12.515625 C 4.992188 -12.515625 5.144531 -12.453125 5.28125 -12.328125 C 5.414062 -12.203125 5.472656 -12.050781 5.453125 -11.875 C 5.421875 -11.257812 5.429688 -10.691406 5.484375 -10.171875 C 5.535156 -9.660156 5.613281 -9.148438 5.71875 -8.640625 C 5.832031 -8.140625 5.953125 -7.632812 6.078125 -7.125 C 6.210938 -6.625 6.34375 -6.128906 6.46875 -5.640625 C 6.582031 -5.160156 6.6875 -4.679688 6.78125 -4.203125 C 6.875 -3.722656 7.023438 -3.257812 7.234375 -2.8125 C 7.347656 -2.59375 7.460938 -2.378906 7.578125 -2.171875 C 7.691406 -1.960938 7.816406 -1.753906 7.953125 -1.546875 C 8.085938 -1.347656 8.207031 -1.144531 8.3125 -0.9375 C 8.414062 -0.738281 8.488281 -0.515625 8.53125 -0.265625 C 8.550781 -0.0976562 8.523438 0.0546875 8.453125 0.203125 C 8.390625 0.359375 8.265625 0.460938 8.078125 0.515625 C 7.929688 0.554688 7.773438 0.53125 7.609375 0.4375 C 7.441406 0.351562 7.34375 0.226562 7.3125 0.0625 C 7.257812 -0.175781 7.171875 -0.390625 7.046875 -0.578125 C 6.929688 -0.773438 6.8125 -0.972656 6.6875 -1.171875 C 6.539062 -1.410156 6.40625 -1.648438 6.28125 -1.890625 C 6.15625 -2.128906 6.046875 -2.375 5.953125 -2.625 C 5.847656 -2.894531 5.753906 -3.160156 5.671875 -3.421875 C 5.597656 -3.691406 5.53125 -3.96875 5.46875 -4.25 C 5 -4.28125 4.53125 -4.300781 4.0625 -4.3125 C 3.601562 -4.332031 3.140625 -4.367188 2.671875 -4.421875 C 2.421875 -3.742188 2.207031 -3.054688 2.03125 -2.359375 C 1.851562 -1.660156 1.757812 -0.941406 1.75 -0.203125 Z M 3.25 -5.84375 C 3.226562 -5.8125 3.210938 -5.773438 3.203125 -5.734375 C 3.203125 -5.703125 3.191406 -5.671875 3.171875 -5.640625 C 3.503906 -5.609375 3.832031 -5.585938 4.15625 -5.578125 C 4.488281 -5.566406 4.828125 -5.550781 5.171875 -5.53125 C 5.054688 -6.039062 4.929688 -6.546875 4.796875 -7.046875 C 4.660156 -7.554688 4.539062 -8.070312 4.4375 -8.59375 C 4.25 -8.125 4.050781 -7.664062 3.84375 -7.21875 C 3.644531 -6.769531 3.445312 -6.3125 3.25 -5.84375 Z M 3.25 -5.84375 "/></g></g></g><g fill="#000000" fill-opacity="1"><g transform="translate(103.775976, 37.744471)"><g><path d="M 6.90625 -0.390625 C 6.820312 -0.242188 6.691406 -0.144531 6.515625 -0.09375 C 6.335938 -0.0390625 6.175781 -0.0664062 6.03125 -0.171875 C 5.75 -0.390625 5.472656 -0.609375 5.203125 -0.828125 C 4.941406 -1.054688 4.65625 -1.265625 4.34375 -1.453125 C 4.070312 -1.617188 3.796875 -1.769531 3.515625 -1.90625 C 3.242188 -2.050781 2.976562 -2.222656 2.71875 -2.421875 C 2.414062 -2.648438 2.128906 -2.90625 1.859375 -3.1875 C 1.847656 -2.65625 1.851562 -2.125 1.875 -1.59375 C 1.894531 -1.070312 1.925781 -0.546875 1.96875 -0.015625 C 1.988281 0.160156 1.929688 0.3125 1.796875 0.4375 C 1.660156 0.5625 1.515625 0.625 1.359375 0.625 C 1.160156 0.625 1.007812 0.5625 0.90625 0.4375 C 0.800781 0.3125 0.738281 0.160156 0.71875 -0.015625 C 0.65625 -0.773438 0.617188 -1.523438 0.609375 -2.265625 C 0.597656 -3.003906 0.613281 -3.75 0.65625 -4.5 C 0.570312 -4.613281 0.484375 -4.734375 0.390625 -4.859375 C 0.304688 -4.984375 0.226562 -5.109375 0.15625 -5.234375 C 0.09375 -5.359375 0.0664062 -5.476562 0.078125 -5.59375 C 0.0976562 -5.71875 0.140625 -5.820312 0.203125 -5.90625 C 0.273438 -5.988281 0.363281 -6.054688 0.46875 -6.109375 C 0.570312 -6.160156 0.679688 -6.179688 0.796875 -6.171875 C 0.816406 -6.421875 0.84375 -6.664062 0.875 -6.90625 C 0.90625 -7.15625 0.9375 -7.40625 0.96875 -7.65625 C 1 -7.820312 1.023438 -7.988281 1.046875 -8.15625 C 1.078125 -8.320312 1.101562 -8.488281 1.125 -8.65625 C 1.144531 -8.738281 1.15625 -8.816406 1.15625 -8.890625 C 1.164062 -8.972656 1.179688 -9.054688 1.203125 -9.140625 C 1.203125 -9.179688 1.210938 -9.234375 1.234375 -9.296875 C 1.242188 -9.429688 1.25 -9.566406 1.25 -9.703125 C 1.25 -9.835938 1.253906 -9.972656 1.265625 -10.109375 C 1.285156 -10.273438 1.304688 -10.457031 1.328125 -10.65625 C 1.359375 -10.851562 1.398438 -11.039062 1.453125 -11.21875 C 1.515625 -11.40625 1.597656 -11.578125 1.703125 -11.734375 C 1.804688 -11.898438 1.945312 -12.023438 2.125 -12.109375 C 2.300781 -12.179688 2.472656 -12.222656 2.640625 -12.234375 C 2.816406 -12.242188 2.992188 -12.234375 3.171875 -12.203125 C 3.347656 -12.171875 3.519531 -12.125 3.6875 -12.0625 C 3.863281 -12.007812 4.03125 -11.953125 4.1875 -11.890625 C 4.5625 -11.753906 4.929688 -11.597656 5.296875 -11.421875 C 5.660156 -11.242188 5.984375 -11.019531 6.265625 -10.75 C 6.546875 -10.46875 6.785156 -10.140625 6.984375 -9.765625 C 7.179688 -9.390625 7.269531 -9 7.25 -8.59375 C 7.226562 -8.351562 7.175781 -8.140625 7.09375 -7.953125 C 7.019531 -7.765625 6.914062 -7.578125 6.78125 -7.390625 C 6.4375 -6.910156 6.066406 -6.453125 5.671875 -6.015625 C 5.285156 -5.578125 4.867188 -5.179688 4.421875 -4.828125 C 4.210938 -4.648438 3.984375 -4.476562 3.734375 -4.3125 C 3.484375 -4.144531 3.21875 -4.003906 2.9375 -3.890625 C 3.039062 -3.796875 3.140625 -3.707031 3.234375 -3.625 C 3.328125 -3.539062 3.425781 -3.46875 3.53125 -3.40625 C 3.8125 -3.226562 4.09375 -3.0625 4.375 -2.90625 C 4.65625 -2.75 4.925781 -2.582031 5.1875 -2.40625 C 5.4375 -2.21875 5.679688 -2.023438 5.921875 -1.828125 C 6.171875 -1.628906 6.421875 -1.4375 6.671875 -1.25 C 6.816406 -1.15625 6.910156 -1.03125 6.953125 -0.875 C 7.003906 -0.71875 6.988281 -0.554688 6.90625 -0.390625 Z M 2.609375 -5.125 C 2.859375 -5.257812 3.085938 -5.40625 3.296875 -5.5625 C 3.503906 -5.71875 3.710938 -5.882812 3.921875 -6.0625 C 4.128906 -6.25 4.332031 -6.445312 4.53125 -6.65625 C 4.738281 -6.875 4.9375 -7.09375 5.125 -7.3125 C 5.195312 -7.40625 5.265625 -7.488281 5.328125 -7.5625 C 5.390625 -7.632812 5.445312 -7.703125 5.5 -7.765625 C 5.5625 -7.835938 5.617188 -7.910156 5.671875 -7.984375 C 5.734375 -8.066406 5.796875 -8.164062 5.859375 -8.28125 C 5.878906 -8.3125 5.898438 -8.34375 5.921875 -8.375 C 5.941406 -8.40625 5.960938 -8.4375 5.984375 -8.46875 C 5.992188 -8.757812 5.929688 -9.035156 5.796875 -9.296875 C 5.609375 -9.597656 5.378906 -9.84375 5.109375 -10.03125 C 4.835938 -10.226562 4.539062 -10.390625 4.21875 -10.515625 C 4.03125 -10.597656 3.835938 -10.671875 3.640625 -10.734375 C 3.453125 -10.804688 3.253906 -10.867188 3.046875 -10.921875 C 2.984375 -10.941406 2.898438 -10.960938 2.796875 -10.984375 C 2.734375 -10.960938 2.691406 -10.929688 2.671875 -10.890625 C 2.628906 -10.742188 2.609375 -10.644531 2.609375 -10.59375 C 2.597656 -10.5625 2.582031 -10.503906 2.5625 -10.421875 C 2.550781 -10.316406 2.539062 -10.234375 2.53125 -10.171875 C 2.53125 -10.117188 2.53125 -10.0625 2.53125 -10 C 2.5 -9.257812 2.421875 -8.535156 2.296875 -7.828125 C 2.171875 -7.117188 2.070312 -6.398438 2 -5.671875 C 1.976562 -5.546875 1.960938 -5.421875 1.953125 -5.296875 C 1.953125 -5.179688 1.945312 -5.066406 1.9375 -4.953125 C 2.03125 -4.941406 2.082031 -4.941406 2.09375 -4.953125 C 2.21875 -4.972656 2.3125 -4.992188 2.375 -5.015625 C 2.445312 -5.046875 2.523438 -5.082031 2.609375 -5.125 Z M 2.609375 -5.125 "/></g></g></g><g fill="#000000" fill-opacity="1"><g transform="translate(111.61153, 37.744471)"><g><path d="M 0.21875 -9.828125 C 0.0507812 -9.804688 -0.09375 -9.863281 -0.21875 -10 C -0.34375 -10.144531 -0.40625 -10.300781 -0.40625 -10.46875 C -0.40625 -10.65625 -0.34375 -10.800781 -0.21875 -10.90625 C -0.09375 -11.019531 0.0507812 -11.085938 0.21875 -11.109375 C 0.75 -11.148438 1.273438 -11.171875 1.796875 -11.171875 C 2.316406 -11.171875 2.84375 -11.15625 3.375 -11.125 C 3.519531 -11.175781 3.675781 -11.164062 3.84375 -11.09375 C 4.832031 -11.019531 5.832031 -10.890625 6.84375 -10.703125 C 7.007812 -10.671875 7.132812 -10.570312 7.21875 -10.40625 C 7.3125 -10.238281 7.328125 -10.082031 7.265625 -9.9375 C 7.210938 -9.75 7.113281 -9.617188 6.96875 -9.546875 C 6.832031 -9.484375 6.675781 -9.460938 6.5 -9.484375 C 6.09375 -9.554688 5.691406 -9.617188 5.296875 -9.671875 C 4.898438 -9.722656 4.503906 -9.765625 4.109375 -9.796875 C 3.960938 -9.054688 3.875 -8.316406 3.84375 -7.578125 C 3.8125 -6.835938 3.835938 -6.082031 3.921875 -5.3125 C 3.992188 -4.53125 4.097656 -3.753906 4.234375 -2.984375 C 4.367188 -2.210938 4.507812 -1.441406 4.65625 -0.671875 C 4.6875 -0.484375 4.664062 -0.316406 4.59375 -0.171875 C 4.53125 -0.0351562 4.410156 0.0546875 4.234375 0.109375 C 4.078125 0.160156 3.914062 0.144531 3.75 0.0625 C 3.582031 -0.0195312 3.484375 -0.144531 3.453125 -0.3125 C 3.285156 -1.175781 3.125 -2.03125 2.96875 -2.875 C 2.8125 -3.71875 2.695312 -4.566406 2.625 -5.421875 C 2.5625 -6.179688 2.546875 -6.929688 2.578125 -7.671875 C 2.609375 -8.410156 2.691406 -9.148438 2.828125 -9.890625 C 1.960938 -9.921875 1.09375 -9.898438 0.21875 -9.828125 Z M 0.21875 -9.828125 "/></g></g></g><g fill="#000000" fill-opacity="1"><g transform="translate(118.270078, 37.744471)"><g><path d="M 0.890625 -5.421875 C 0.898438 -6.328125 0.890625 -7.222656 0.859375 -8.109375 C 0.835938 -8.992188 0.722656 -9.878906 0.515625 -10.765625 C 0.460938 -10.960938 0.488281 -11.125 0.59375 -11.25 C 0.695312 -11.382812 0.820312 -11.472656 0.96875 -11.515625 C 1.125 -11.566406 1.273438 -11.554688 1.421875 -11.484375 C 1.578125 -11.421875 1.679688 -11.289062 1.734375 -11.09375 C 1.953125 -10.1875 2.070312 -9.273438 2.09375 -8.359375 C 2.113281 -7.441406 2.117188 -6.519531 2.109375 -5.59375 C 2.441406 -5.550781 2.769531 -5.507812 3.09375 -5.46875 C 3.425781 -5.4375 3.753906 -5.410156 4.078125 -5.390625 C 4.410156 -5.378906 4.738281 -5.378906 5.0625 -5.390625 C 5.382812 -5.410156 5.707031 -5.460938 6.03125 -5.546875 C 6.113281 -5.585938 6.203125 -5.59375 6.296875 -5.5625 C 6.328125 -6.039062 6.367188 -6.507812 6.421875 -6.96875 C 6.484375 -7.4375 6.519531 -7.910156 6.53125 -8.390625 C 6.550781 -8.898438 6.535156 -9.398438 6.484375 -9.890625 C 6.441406 -10.390625 6.394531 -10.894531 6.34375 -11.40625 C 6.320312 -11.582031 6.378906 -11.734375 6.515625 -11.859375 C 6.660156 -11.984375 6.816406 -12.046875 6.984375 -12.046875 C 7.160156 -12.046875 7.300781 -11.984375 7.40625 -11.859375 C 7.519531 -11.734375 7.585938 -11.582031 7.609375 -11.40625 C 7.660156 -10.894531 7.707031 -10.390625 7.75 -9.890625 C 7.800781 -9.398438 7.816406 -8.898438 7.796875 -8.390625 C 7.773438 -7.878906 7.734375 -7.378906 7.671875 -6.890625 C 7.617188 -6.410156 7.582031 -5.914062 7.5625 -5.40625 C 7.507812 -4.582031 7.472656 -3.753906 7.453125 -2.921875 C 7.429688 -2.085938 7.445312 -1.257812 7.5 -0.4375 C 7.507812 -0.21875 7.445312 -0.0625 7.3125 0.03125 C 7.1875 0.132812 7.046875 0.1875 6.890625 0.1875 C 6.734375 0.1875 6.582031 0.132812 6.4375 0.03125 C 6.300781 -0.0625 6.226562 -0.21875 6.21875 -0.4375 C 6.175781 -1.070312 6.15625 -1.710938 6.15625 -2.359375 C 6.164062 -3.003906 6.1875 -3.648438 6.21875 -4.296875 C 5.882812 -4.210938 5.546875 -4.160156 5.203125 -4.140625 C 4.859375 -4.128906 4.515625 -4.128906 4.171875 -4.140625 C 3.835938 -4.160156 3.5 -4.1875 3.15625 -4.21875 C 2.8125 -4.257812 2.46875 -4.296875 2.125 -4.328125 C 2.144531 -3.734375 2.175781 -3.144531 2.21875 -2.5625 C 2.269531 -1.976562 2.367188 -1.394531 2.515625 -0.8125 C 2.566406 -0.613281 2.539062 -0.445312 2.4375 -0.3125 C 2.34375 -0.175781 2.21875 -0.0859375 2.0625 -0.046875 C 1.90625 -0.00390625 1.75 -0.015625 1.59375 -0.078125 C 1.445312 -0.140625 1.351562 -0.273438 1.3125 -0.484375 C 1.125 -1.160156 1.007812 -1.835938 0.96875 -2.515625 C 0.925781 -3.203125 0.898438 -3.894531 0.890625 -4.59375 C 0.804688 -4.71875 0.765625 -4.859375 0.765625 -5.015625 C 0.765625 -5.171875 0.804688 -5.304688 0.890625 -5.421875 Z M 0.890625 -5.421875 "/></g></g></g><g fill="#7effe4" fill-opacity="1"><g transform="translate(127.31664, 37.744471)"><g><path d="M 1.578125 -1.109375 C 1.710938 -1.023438 1.816406 -0.898438 1.890625 -0.734375 C 1.960938 -0.566406 1.972656 -0.40625 1.921875 -0.25 C 1.859375 -0.0703125 1.753906 0.0546875 1.609375 0.140625 C 1.492188 0.265625 1.34375 0.320312 1.15625 0.3125 C 0.976562 0.3125 0.832031 0.253906 0.71875 0.140625 C 0.5625 0.015625 0.457031 -0.0859375 0.40625 -0.171875 C 0.320312 -0.316406 0.296875 -0.460938 0.328125 -0.609375 C 0.367188 -0.765625 0.457031 -0.894531 0.59375 -1 C 0.613281 -1.019531 0.640625 -1.039062 0.671875 -1.0625 C 0.703125 -1.09375 0.734375 -1.117188 0.765625 -1.140625 C 0.859375 -1.179688 0.910156 -1.203125 0.921875 -1.203125 C 0.941406 -1.203125 1.003906 -1.210938 1.109375 -1.234375 C 1.191406 -1.234375 1.257812 -1.222656 1.3125 -1.203125 C 1.414062 -1.179688 1.503906 -1.148438 1.578125 -1.109375 Z M 1.578125 -1.109375 "/></g></g></g></svg>