<svg xmlns="http://www.w3.org/2000/svg" xmlns:xlink="http://www.w3.org/1999/xlink" width="162" zoomAndPan="magnify" viewBox="0 0 121.5 32.999998" height="44" preserveAspectRatio="xMidYMid meet" version="1.0"><defs><g/><clipPath id="a41cb20c87"><path d="M 7 0.0664062 L 111 0.0664062 L 111 27 L 7 27 Z M 7 0.0664062 " clip-rule="nonzero"/></clipPath><clipPath id="88fcef1501"><path d="M 26 0.0664062 L 34 0.0664062 L 34 20 L 26 20 Z M 26 0.0664062 " clip-rule="nonzero"/></clipPath><clipPath id="c6d20aca67"><rect x="0" width="104" y="0" height="27"/></clipPath><clipPath id="be8571c819"><path d="M 81 21 L 89 21 L 89 32.929688 L 81 32.929688 Z M 81 21 " clip-rule="nonzero"/></clipPath><clipPath id="bb6ee0c9b3"><path d="M 88 21 L 96 21 L 96 32.929688 L 88 32.929688 Z M 88 21 " clip-rule="nonzero"/></clipPath><clipPath id="b8b28f3d26"><path d="M 108 30 L 111 30 L 111 32.929688 L 108 32.929688 Z M 108 30 " clip-rule="nonzero"/></clipPath></defs><g clip-path="url(#a41cb20c87)"><g transform="matrix(1, 0, 0, 1, 7, -0.000000000000005801)"><g clip-path="url(#c6d20aca67)"><g fill="#ffffff" fill-opacity="1"><g transform="translate(1.495056, 19.721908)"><g><path d="M 23.875 -17.359375 L 23.875 -16.859375 C 23.519531 -16.734375 23.144531 -16.453125 22.75 -16.015625 C 22.351562 -15.585938 22.007812 -14.898438 21.71875 -13.953125 L 17.40625 0.046875 C 17.269531 0.0351562 17.128906 0.03125 16.984375 0.03125 C 16.835938 0.03125 16.691406 0.03125 16.546875 0.03125 C 16.398438 0.03125 16.253906 0.03125 16.109375 0.03125 C 15.960938 0.03125 15.820312 0.0351562 15.6875 0.046875 L 10.546875 -15.546875 C 10.378906 -16.046875 10.175781 -16.382812 9.9375 -16.5625 C 9.695312 -16.75 9.445312 -16.847656 9.1875 -16.859375 L 9.1875 -17.359375 C 9.644531 -17.335938 10.1875 -17.316406 10.8125 -17.296875 C 11.445312 -17.285156 12.078125 -17.28125 12.703125 -17.28125 C 13.421875 -17.28125 14.09375 -17.285156 14.71875 -17.296875 C 15.351562 -17.316406 15.859375 -17.335938 16.234375 -17.359375 L 16.234375 -16.859375 C 15.742188 -16.847656 15.351562 -16.789062 15.0625 -16.6875 C 14.78125 -16.59375 14.617188 -16.40625 14.578125 -16.125 C 14.535156 -15.851562 14.613281 -15.414062 14.8125 -14.8125 L 18.28125 -4.171875 L 17.71875 -3.15625 L 20.5 -11.96875 C 20.882812 -13.207031 21.066406 -14.175781 21.046875 -14.875 C 21.035156 -15.582031 20.847656 -16.085938 20.484375 -16.390625 C 20.128906 -16.691406 19.617188 -16.847656 18.953125 -16.859375 L 18.953125 -17.359375 C 19.503906 -17.335938 20.023438 -17.316406 20.515625 -17.296875 C 21.003906 -17.285156 21.492188 -17.28125 21.984375 -17.28125 C 22.359375 -17.28125 22.707031 -17.285156 23.03125 -17.296875 C 23.351562 -17.316406 23.632812 -17.335938 23.875 -17.359375 Z M 6.375 -17.359375 L 6.375 -16.859375 C 6.050781 -16.816406 5.820312 -16.703125 5.6875 -16.515625 C 5.550781 -16.328125 5.492188 -16.082031 5.515625 -15.78125 C 5.546875 -15.476562 5.617188 -15.15625 5.734375 -14.8125 L 9.484375 -3.921875 L 8.828125 -3.046875 L 11.96875 -12.203125 L 12.3125 -11.546875 L 8.453125 0.046875 C 8.328125 0.0351562 8.191406 0.03125 8.046875 0.03125 C 7.898438 0.03125 7.75 0.03125 7.59375 0.03125 C 7.445312 0.03125 7.300781 0.03125 7.15625 0.03125 C 7.007812 0.03125 6.867188 0.0351562 6.734375 0.046875 L 1.25 -15.296875 C 1.039062 -15.898438 0.789062 -16.304688 0.5 -16.515625 C 0.21875 -16.734375 -0.046875 -16.847656 -0.296875 -16.859375 L -0.296875 -17.359375 C 0.191406 -17.335938 0.769531 -17.316406 1.4375 -17.296875 C 2.113281 -17.285156 2.753906 -17.28125 3.359375 -17.28125 C 4.015625 -17.28125 4.597656 -17.285156 5.109375 -17.296875 C 5.628906 -17.316406 6.050781 -17.335938 6.375 -17.359375 Z M 6.375 -17.359375 "/></g></g></g><g clip-path="url(#88fcef1501)"><g fill="#ffffff" fill-opacity="1"><g transform="translate(26.344618, 19.721908)"><g><path d="M 3.765625 -19 C 4.453125 -19 4.992188 -18.832031 5.390625 -18.5 C 5.796875 -18.164062 6 -17.703125 6 -17.109375 C 6 -16.523438 5.796875 -16.0625 5.390625 -15.71875 C 4.992188 -15.382812 4.453125 -15.21875 3.765625 -15.21875 C 3.078125 -15.21875 2.535156 -15.382812 2.140625 -15.71875 C 1.742188 -16.0625 1.546875 -16.523438 1.546875 -17.109375 C 1.546875 -17.703125 1.742188 -18.164062 2.140625 -18.5 C 2.535156 -18.832031 3.078125 -19 3.765625 -19 Z M 5.6875 -12.9375 L 5.6875 -2.28125 C 5.6875 -1.59375 5.804688 -1.125 6.046875 -0.875 C 6.285156 -0.632812 6.6875 -0.515625 7.25 -0.515625 L 7.25 0 C 6.957031 -0.0195312 6.5 -0.0390625 5.875 -0.0625 C 5.257812 -0.0820312 4.632812 -0.09375 4 -0.09375 C 3.363281 -0.09375 2.71875 -0.0820312 2.0625 -0.0625 C 1.40625 -0.0390625 0.914062 -0.0195312 0.59375 0 L 0.59375 -0.515625 C 1.164062 -0.515625 1.566406 -0.632812 1.796875 -0.875 C 2.035156 -1.125 2.15625 -1.59375 2.15625 -2.28125 L 2.15625 -10 C 2.15625 -10.738281 2.046875 -11.28125 1.828125 -11.625 C 1.609375 -11.976562 1.195312 -12.15625 0.59375 -12.15625 L 0.59375 -12.671875 C 1.113281 -12.617188 1.617188 -12.59375 2.109375 -12.59375 C 2.796875 -12.59375 3.4375 -12.617188 4.03125 -12.671875 C 4.625 -12.734375 5.175781 -12.820312 5.6875 -12.9375 Z M 5.6875 -12.9375 "/></g></g></g></g><g fill="#ffffff" fill-opacity="1"><g transform="translate(35.878229, 19.721908)"><g><path d="M 9.703125 -13.015625 C 10.390625 -13.015625 10.945312 -12.925781 11.375 -12.75 C 11.8125 -12.582031 12.15625 -12.351562 12.40625 -12.0625 C 12.664062 -11.75 12.859375 -11.347656 12.984375 -10.859375 C 13.109375 -10.367188 13.171875 -9.707031 13.171875 -8.875 L 13.171875 -2.28125 C 13.171875 -1.59375 13.285156 -1.125 13.515625 -0.875 C 13.753906 -0.632812 14.160156 -0.515625 14.734375 -0.515625 L 14.734375 0 C 14.421875 -0.0195312 13.953125 -0.0390625 13.328125 -0.0625 C 12.710938 -0.0820312 12.101562 -0.09375 11.5 -0.09375 C 10.875 -0.09375 10.265625 -0.0820312 9.671875 -0.0625 C 9.078125 -0.0390625 8.625 -0.0195312 8.3125 0 L 8.3125 -0.515625 C 8.800781 -0.515625 9.144531 -0.632812 9.34375 -0.875 C 9.539062 -1.125 9.640625 -1.59375 9.640625 -2.28125 L 9.640625 -9.90625 C 9.640625 -10.3125 9.597656 -10.664062 9.515625 -10.96875 C 9.429688 -11.269531 9.28125 -11.503906 9.0625 -11.671875 C 8.851562 -11.847656 8.535156 -11.9375 8.109375 -11.9375 C 7.671875 -11.9375 7.265625 -11.8125 6.890625 -11.5625 C 6.523438 -11.320312 6.234375 -10.984375 6.015625 -10.546875 C 5.796875 -10.117188 5.6875 -9.632812 5.6875 -9.09375 L 5.6875 -2.28125 C 5.6875 -1.59375 5.785156 -1.125 5.984375 -0.875 C 6.191406 -0.632812 6.535156 -0.515625 7.015625 -0.515625 L 7.015625 0 C 6.710938 -0.0195312 6.28125 -0.0390625 5.71875 -0.0625 C 5.15625 -0.0820312 4.570312 -0.09375 3.96875 -0.09375 C 3.351562 -0.09375 2.71875 -0.0820312 2.0625 -0.0625 C 1.40625 -0.0390625 0.914062 -0.0195312 0.59375 0 L 0.59375 -0.515625 C 1.164062 -0.515625 1.566406 -0.632812 1.796875 -0.875 C 2.035156 -1.125 2.15625 -1.59375 2.15625 -2.28125 L 2.15625 -10 C 2.15625 -10.738281 2.046875 -11.28125 1.828125 -11.625 C 1.609375 -11.976562 1.195312 -12.15625 0.59375 -12.15625 L 0.59375 -12.671875 C 1.113281 -12.617188 1.617188 -12.59375 2.109375 -12.59375 C 2.796875 -12.59375 3.4375 -12.617188 4.03125 -12.671875 C 4.625 -12.734375 5.175781 -12.820312 5.6875 -12.9375 L 5.6875 -10.734375 C 6.09375 -11.566406 6.644531 -12.15625 7.34375 -12.5 C 8.050781 -12.84375 8.835938 -13.015625 9.703125 -13.015625 Z M 9.703125 -13.015625 "/></g></g></g><g fill="#ffffff" fill-opacity="1"><g transform="translate(51.341885, 19.721908)"><g><path d="M 23.875 -17.359375 L 23.875 -16.859375 C 23.519531 -16.734375 23.144531 -16.453125 22.75 -16.015625 C 22.351562 -15.585938 22.007812 -14.898438 21.71875 -13.953125 L 17.40625 0.046875 C 17.269531 0.0351562 17.128906 0.03125 16.984375 0.03125 C 16.835938 0.03125 16.691406 0.03125 16.546875 0.03125 C 16.398438 0.03125 16.253906 0.03125 16.109375 0.03125 C 15.960938 0.03125 15.820312 0.0351562 15.6875 0.046875 L 10.546875 -15.546875 C 10.378906 -16.046875 10.175781 -16.382812 9.9375 -16.5625 C 9.695312 -16.75 9.445312 -16.847656 9.1875 -16.859375 L 9.1875 -17.359375 C 9.644531 -17.335938 10.1875 -17.316406 10.8125 -17.296875 C 11.445312 -17.285156 12.078125 -17.28125 12.703125 -17.28125 C 13.421875 -17.28125 14.09375 -17.285156 14.71875 -17.296875 C 15.351562 -17.316406 15.859375 -17.335938 16.234375 -17.359375 L 16.234375 -16.859375 C 15.742188 -16.847656 15.351562 -16.789062 15.0625 -16.6875 C 14.78125 -16.59375 14.617188 -16.40625 14.578125 -16.125 C 14.535156 -15.851562 14.613281 -15.414062 14.8125 -14.8125 L 18.28125 -4.171875 L 17.71875 -3.15625 L 20.5 -11.96875 C 20.882812 -13.207031 21.066406 -14.175781 21.046875 -14.875 C 21.035156 -15.582031 20.847656 -16.085938 20.484375 -16.390625 C 20.128906 -16.691406 19.617188 -16.847656 18.953125 -16.859375 L 18.953125 -17.359375 C 19.503906 -17.335938 20.023438 -17.316406 20.515625 -17.296875 C 21.003906 -17.285156 21.492188 -17.28125 21.984375 -17.28125 C 22.359375 -17.28125 22.707031 -17.285156 23.03125 -17.296875 C 23.351562 -17.316406 23.632812 -17.335938 23.875 -17.359375 Z M 6.375 -17.359375 L 6.375 -16.859375 C 6.050781 -16.816406 5.820312 -16.703125 5.6875 -16.515625 C 5.550781 -16.328125 5.492188 -16.082031 5.515625 -15.78125 C 5.546875 -15.476562 5.617188 -15.15625 5.734375 -14.8125 L 9.484375 -3.921875 L 8.828125 -3.046875 L 11.96875 -12.203125 L 12.3125 -11.546875 L 8.453125 0.046875 C 8.328125 0.0351562 8.191406 0.03125 8.046875 0.03125 C 7.898438 0.03125 7.75 0.03125 7.59375 0.03125 C 7.445312 0.03125 7.300781 0.03125 7.15625 0.03125 C 7.007812 0.03125 6.867188 0.0351562 6.734375 0.046875 L 1.25 -15.296875 C 1.039062 -15.898438 0.789062 -16.304688 0.5 -16.515625 C 0.21875 -16.734375 -0.046875 -16.847656 -0.296875 -16.859375 L -0.296875 -17.359375 C 0.191406 -17.335938 0.769531 -17.316406 1.4375 -17.296875 C 2.113281 -17.285156 2.753906 -17.28125 3.359375 -17.28125 C 4.015625 -17.28125 4.597656 -17.285156 5.109375 -17.296875 C 5.628906 -17.316406 6.050781 -17.335938 6.375 -17.359375 Z M 6.375 -17.359375 "/></g></g></g><g fill="#ffffff" fill-opacity="1"><g transform="translate(75.161932, 19.721908)"><g><path d="M 6.90625 -13.015625 C 8.351562 -13.015625 9.484375 -12.585938 10.296875 -11.734375 C 11.109375 -10.890625 11.515625 -9.503906 11.515625 -7.578125 L 3.453125 -7.578125 L 3.40625 -8.046875 L 8.4375 -8.046875 C 8.445312 -8.847656 8.394531 -9.585938 8.28125 -10.265625 C 8.164062 -10.941406 7.984375 -11.484375 7.734375 -11.890625 C 7.492188 -12.296875 7.171875 -12.5 6.765625 -12.5 C 6.191406 -12.5 5.703125 -12.140625 5.296875 -11.421875 C 4.898438 -10.703125 4.660156 -9.507812 4.578125 -7.84375 L 4.65625 -7.703125 C 4.644531 -7.503906 4.632812 -7.296875 4.625 -7.078125 C 4.613281 -6.867188 4.609375 -6.648438 4.609375 -6.421875 C 4.609375 -5.296875 4.765625 -4.378906 5.078125 -3.671875 C 5.398438 -2.972656 5.804688 -2.460938 6.296875 -2.140625 C 6.785156 -1.828125 7.285156 -1.671875 7.796875 -1.671875 C 8.140625 -1.671875 8.492188 -1.722656 8.859375 -1.828125 C 9.222656 -1.929688 9.59375 -2.125 9.96875 -2.40625 C 10.351562 -2.695312 10.707031 -3.101562 11.03125 -3.625 L 11.46875 -3.484375 C 11.269531 -2.859375 10.957031 -2.25 10.53125 -1.65625 C 10.113281 -1.070312 9.578125 -0.59375 8.921875 -0.21875 C 8.265625 0.15625 7.476562 0.34375 6.5625 0.34375 C 5.457031 0.34375 4.476562 0.109375 3.625 -0.359375 C 2.78125 -0.835938 2.113281 -1.554688 1.625 -2.515625 C 1.144531 -3.484375 0.90625 -4.710938 0.90625 -6.203125 C 0.90625 -7.722656 1.160156 -8.988281 1.671875 -10 C 2.191406 -11.007812 2.90625 -11.765625 3.8125 -12.265625 C 4.71875 -12.765625 5.75 -13.015625 6.90625 -13.015625 Z M 6.90625 -13.015625 "/></g></g></g><g fill="#ffffff" fill-opacity="1"><g transform="translate(89.327139, 19.721908)"><g><path d="M 6.90625 -13.015625 C 8.351562 -13.015625 9.484375 -12.585938 10.296875 -11.734375 C 11.109375 -10.890625 11.515625 -9.503906 11.515625 -7.578125 L 3.453125 -7.578125 L 3.40625 -8.046875 L 8.4375 -8.046875 C 8.445312 -8.847656 8.394531 -9.585938 8.28125 -10.265625 C 8.164062 -10.941406 7.984375 -11.484375 7.734375 -11.890625 C 7.492188 -12.296875 7.171875 -12.5 6.765625 -12.5 C 6.191406 -12.5 5.703125 -12.140625 5.296875 -11.421875 C 4.898438 -10.703125 4.660156 -9.507812 4.578125 -7.84375 L 4.65625 -7.703125 C 4.644531 -7.503906 4.632812 -7.296875 4.625 -7.078125 C 4.613281 -6.867188 4.609375 -6.648438 4.609375 -6.421875 C 4.609375 -5.296875 4.765625 -4.378906 5.078125 -3.671875 C 5.398438 -2.972656 5.804688 -2.460938 6.296875 -2.140625 C 6.785156 -1.828125 7.285156 -1.671875 7.796875 -1.671875 C 8.140625 -1.671875 8.492188 -1.722656 8.859375 -1.828125 C 9.222656 -1.929688 9.59375 -2.125 9.96875 -2.40625 C 10.351562 -2.695312 10.707031 -3.101562 11.03125 -3.625 L 11.46875 -3.484375 C 11.269531 -2.859375 10.957031 -2.25 10.53125 -1.65625 C 10.113281 -1.070312 9.578125 -0.59375 8.921875 -0.21875 C 8.265625 0.15625 7.476562 0.34375 6.5625 0.34375 C 5.457031 0.34375 4.476562 0.109375 3.625 -0.359375 C 2.78125 -0.835938 2.113281 -1.554688 1.625 -2.515625 C 1.144531 -3.484375 0.90625 -4.710938 0.90625 -6.203125 C 0.90625 -7.722656 1.160156 -8.988281 1.671875 -10 C 2.191406 -11.007812 2.90625 -11.765625 3.8125 -12.265625 C 4.71875 -12.765625 5.75 -13.015625 6.90625 -13.015625 Z M 6.90625 -13.015625 "/></g></g></g></g></g></g><g fill="#ffffff" fill-opacity="1"><g transform="translate(74.145409, 31.780782)"><g><path d="M 0.609375 -7.984375 C 0.429688 -8.035156 0.328125 -8.148438 0.296875 -8.328125 C 0.242188 -8.453125 0.253906 -8.585938 0.328125 -8.734375 C 0.398438 -8.878906 0.507812 -8.960938 0.65625 -8.984375 C 1.519531 -9.109375 2.378906 -9.175781 3.234375 -9.1875 C 4.097656 -9.207031 4.960938 -9.222656 5.828125 -9.234375 C 6.003906 -9.234375 6.132812 -9.175781 6.21875 -9.0625 C 6.300781 -8.957031 6.34375 -8.835938 6.34375 -8.703125 C 6.34375 -8.578125 6.300781 -8.457031 6.21875 -8.34375 C 6.132812 -8.238281 6.003906 -8.1875 5.828125 -8.1875 C 5.140625 -8.164062 4.445312 -8.15625 3.75 -8.15625 C 3.050781 -8.15625 2.351562 -8.117188 1.65625 -8.046875 C 1.675781 -7.691406 1.695312 -7.335938 1.71875 -6.984375 C 1.75 -6.640625 1.773438 -6.289062 1.796875 -5.9375 C 2.472656 -5.976562 3.144531 -6.023438 3.8125 -6.078125 C 4.476562 -6.128906 5.148438 -6.132812 5.828125 -6.09375 C 5.992188 -6.09375 6.117188 -6.03125 6.203125 -5.90625 C 6.296875 -5.789062 6.34375 -5.664062 6.34375 -5.53125 C 6.34375 -5.40625 6.296875 -5.289062 6.203125 -5.1875 C 6.117188 -5.082031 5.992188 -5.03125 5.828125 -5.03125 C 5.160156 -5.070312 4.5 -5.066406 3.84375 -5.015625 C 3.195312 -4.960938 2.546875 -4.914062 1.890625 -4.875 C 1.941406 -4.238281 1.988281 -3.601562 2.03125 -2.96875 C 2.082031 -2.34375 2.117188 -1.710938 2.140625 -1.078125 C 2.441406 -1.148438 2.75 -1.21875 3.0625 -1.28125 C 3.382812 -1.34375 3.707031 -1.394531 4.03125 -1.4375 C 4.351562 -1.476562 4.671875 -1.5 4.984375 -1.5 C 5.304688 -1.5 5.625 -1.472656 5.9375 -1.421875 C 6.082031 -1.390625 6.1875 -1.300781 6.25 -1.15625 C 6.320312 -1.019531 6.34375 -0.890625 6.3125 -0.765625 C 6.269531 -0.617188 6.1875 -0.515625 6.0625 -0.453125 C 5.9375 -0.390625 5.800781 -0.367188 5.65625 -0.390625 C 5.363281 -0.453125 5.070312 -0.472656 4.78125 -0.453125 C 4.488281 -0.429688 4.203125 -0.398438 3.921875 -0.359375 C 3.597656 -0.304688 3.273438 -0.242188 2.953125 -0.171875 C 2.628906 -0.0976562 2.304688 -0.0234375 1.984375 0.046875 C 1.835938 0.0859375 1.695312 0.0625 1.5625 -0.03125 C 1.4375 -0.0390625 1.328125 -0.0859375 1.234375 -0.171875 C 1.140625 -0.253906 1.09375 -0.375 1.09375 -0.53125 C 1.070312 -1.28125 1.035156 -2.019531 0.984375 -2.75 C 0.941406 -3.488281 0.890625 -4.226562 0.828125 -4.96875 C 0.722656 -5.070312 0.664062 -5.195312 0.65625 -5.34375 C 0.644531 -5.488281 0.679688 -5.613281 0.765625 -5.71875 C 0.691406 -6.46875 0.640625 -7.222656 0.609375 -7.984375 Z M 0.609375 -7.984375 "/></g></g></g><g clip-path="url(#be8571c819)"><g fill="#ffffff" fill-opacity="1"><g transform="translate(81.258565, 31.780782)"><g><path d="M 1.453125 -0.171875 C 1.453125 -0.00390625 1.394531 0.117188 1.28125 0.203125 C 1.175781 0.285156 1.054688 0.328125 0.921875 0.328125 C 0.796875 0.328125 0.675781 0.285156 0.5625 0.203125 C 0.457031 0.117188 0.40625 -0.00390625 0.40625 -0.171875 C 0.40625 -0.859375 0.484375 -1.519531 0.640625 -2.15625 C 0.804688 -2.789062 1.007812 -3.425781 1.25 -4.0625 C 1.1875 -4.175781 1.164062 -4.300781 1.1875 -4.4375 C 1.238281 -4.625 1.351562 -4.738281 1.53125 -4.78125 C 1.707031 -5.207031 1.890625 -5.628906 2.078125 -6.046875 C 2.273438 -6.472656 2.460938 -6.894531 2.640625 -7.3125 C 2.816406 -7.738281 2.976562 -8.164062 3.125 -8.59375 C 3.28125 -9.03125 3.40625 -9.476562 3.5 -9.9375 C 3.53125 -10.0625 3.585938 -10.171875 3.671875 -10.265625 C 3.753906 -10.367188 3.867188 -10.421875 4.015625 -10.421875 C 4.160156 -10.421875 4.289062 -10.367188 4.40625 -10.265625 C 4.519531 -10.171875 4.566406 -10.046875 4.546875 -9.890625 C 4.523438 -9.378906 4.535156 -8.910156 4.578125 -8.484375 C 4.617188 -8.054688 4.679688 -7.628906 4.765625 -7.203125 C 4.859375 -6.785156 4.957031 -6.363281 5.0625 -5.9375 C 5.175781 -5.519531 5.285156 -5.101562 5.390625 -4.6875 C 5.484375 -4.289062 5.566406 -3.894531 5.640625 -3.5 C 5.722656 -3.101562 5.851562 -2.71875 6.03125 -2.34375 C 6.125 -2.15625 6.21875 -1.972656 6.3125 -1.796875 C 6.40625 -1.628906 6.507812 -1.457031 6.625 -1.28125 C 6.738281 -1.125 6.835938 -0.957031 6.921875 -0.78125 C 7.003906 -0.613281 7.066406 -0.425781 7.109375 -0.21875 C 7.128906 -0.0820312 7.109375 0.046875 7.046875 0.171875 C 6.992188 0.296875 6.890625 0.378906 6.734375 0.421875 C 6.609375 0.460938 6.472656 0.445312 6.328125 0.375 C 6.191406 0.300781 6.113281 0.191406 6.09375 0.046875 C 6.050781 -0.148438 5.976562 -0.328125 5.875 -0.484375 C 5.78125 -0.648438 5.675781 -0.816406 5.5625 -0.984375 C 5.445312 -1.171875 5.335938 -1.363281 5.234375 -1.5625 C 5.128906 -1.769531 5.035156 -1.976562 4.953125 -2.1875 C 4.867188 -2.40625 4.796875 -2.628906 4.734375 -2.859375 C 4.671875 -3.085938 4.613281 -3.316406 4.5625 -3.546875 C 4.164062 -3.566406 3.773438 -3.582031 3.390625 -3.59375 C 3.003906 -3.613281 2.617188 -3.644531 2.234375 -3.6875 C 2.015625 -3.125 1.832031 -2.550781 1.6875 -1.96875 C 1.539062 -1.382812 1.460938 -0.785156 1.453125 -0.171875 Z M 2.703125 -4.859375 C 2.679688 -4.835938 2.671875 -4.8125 2.671875 -4.78125 C 2.671875 -4.75 2.660156 -4.71875 2.640625 -4.6875 C 2.921875 -4.664062 3.195312 -4.648438 3.46875 -4.640625 C 3.75 -4.640625 4.03125 -4.628906 4.3125 -4.609375 C 4.207031 -5.035156 4.097656 -5.457031 3.984375 -5.875 C 3.878906 -6.300781 3.785156 -6.726562 3.703125 -7.15625 C 3.535156 -6.769531 3.367188 -6.390625 3.203125 -6.015625 C 3.035156 -5.640625 2.867188 -5.253906 2.703125 -4.859375 Z M 2.703125 -4.859375 "/></g></g></g></g><g clip-path="url(#bb6ee0c9b3)"><g fill="#ffffff" fill-opacity="1"><g transform="translate(88.928486, 31.780782)"><g><path d="M 5.75 -0.328125 C 5.6875 -0.203125 5.582031 -0.117188 5.4375 -0.078125 C 5.289062 -0.0351562 5.15625 -0.0546875 5.03125 -0.140625 C 4.789062 -0.316406 4.554688 -0.5 4.328125 -0.6875 C 4.109375 -0.882812 3.875 -1.054688 3.625 -1.203125 C 3.394531 -1.347656 3.160156 -1.476562 2.921875 -1.59375 C 2.691406 -1.71875 2.472656 -1.859375 2.265625 -2.015625 C 2.015625 -2.210938 1.773438 -2.425781 1.546875 -2.65625 C 1.535156 -2.207031 1.539062 -1.765625 1.5625 -1.328125 C 1.582031 -0.890625 1.609375 -0.453125 1.640625 -0.015625 C 1.660156 0.140625 1.613281 0.265625 1.5 0.359375 C 1.382812 0.460938 1.257812 0.515625 1.125 0.515625 C 0.96875 0.515625 0.84375 0.460938 0.75 0.359375 C 0.664062 0.265625 0.613281 0.140625 0.59375 -0.015625 C 0.539062 -0.648438 0.507812 -1.273438 0.5 -1.890625 C 0.488281 -2.503906 0.503906 -3.125 0.546875 -3.75 C 0.472656 -3.84375 0.398438 -3.941406 0.328125 -4.046875 C 0.253906 -4.148438 0.1875 -4.253906 0.125 -4.359375 C 0.0703125 -4.460938 0.0507812 -4.5625 0.0625 -4.65625 C 0.0820312 -4.757812 0.117188 -4.847656 0.171875 -4.921875 C 0.234375 -4.992188 0.304688 -5.050781 0.390625 -5.09375 C 0.472656 -5.132812 0.5625 -5.148438 0.65625 -5.140625 C 0.675781 -5.347656 0.695312 -5.554688 0.71875 -5.765625 C 0.75 -5.972656 0.78125 -6.175781 0.8125 -6.375 C 0.832031 -6.519531 0.851562 -6.660156 0.875 -6.796875 C 0.90625 -6.929688 0.925781 -7.070312 0.9375 -7.21875 C 0.957031 -7.28125 0.96875 -7.34375 0.96875 -7.40625 C 0.976562 -7.46875 0.988281 -7.535156 1 -7.609375 C 1 -7.648438 1.007812 -7.695312 1.03125 -7.75 C 1.039062 -7.863281 1.046875 -7.972656 1.046875 -8.078125 C 1.046875 -8.191406 1.050781 -8.304688 1.0625 -8.421875 C 1.070312 -8.554688 1.085938 -8.707031 1.109375 -8.875 C 1.128906 -9.039062 1.160156 -9.203125 1.203125 -9.359375 C 1.253906 -9.515625 1.320312 -9.65625 1.40625 -9.78125 C 1.5 -9.914062 1.625 -10.019531 1.78125 -10.09375 C 1.914062 -10.15625 2.054688 -10.1875 2.203125 -10.1875 C 2.347656 -10.195312 2.492188 -10.1875 2.640625 -10.15625 C 2.785156 -10.132812 2.925781 -10.097656 3.0625 -10.046875 C 3.207031 -10.003906 3.347656 -9.957031 3.484375 -9.90625 C 3.796875 -9.789062 4.101562 -9.660156 4.40625 -9.515625 C 4.707031 -9.367188 4.976562 -9.179688 5.21875 -8.953125 C 5.445312 -8.722656 5.644531 -8.453125 5.8125 -8.140625 C 5.988281 -7.828125 6.066406 -7.5 6.046875 -7.15625 C 6.023438 -6.957031 5.984375 -6.78125 5.921875 -6.625 C 5.859375 -6.46875 5.769531 -6.3125 5.65625 -6.15625 C 5.363281 -5.757812 5.054688 -5.378906 4.734375 -5.015625 C 4.410156 -4.648438 4.0625 -4.316406 3.6875 -4.015625 C 3.507812 -3.878906 3.316406 -3.738281 3.109375 -3.59375 C 2.898438 -3.445312 2.679688 -3.328125 2.453125 -3.234375 C 2.535156 -3.160156 2.613281 -3.085938 2.6875 -3.015625 C 2.769531 -2.953125 2.851562 -2.894531 2.9375 -2.84375 C 3.164062 -2.6875 3.394531 -2.546875 3.625 -2.421875 C 3.863281 -2.296875 4.097656 -2.15625 4.328125 -2 C 4.535156 -1.851562 4.738281 -1.691406 4.9375 -1.515625 C 5.144531 -1.347656 5.351562 -1.191406 5.5625 -1.046875 C 5.675781 -0.960938 5.753906 -0.851562 5.796875 -0.71875 C 5.835938 -0.59375 5.820312 -0.460938 5.75 -0.328125 Z M 2.171875 -4.265625 C 2.390625 -4.378906 2.582031 -4.5 2.75 -4.625 C 2.925781 -4.757812 3.097656 -4.898438 3.265625 -5.046875 C 3.441406 -5.210938 3.613281 -5.382812 3.78125 -5.5625 C 3.945312 -5.738281 4.109375 -5.914062 4.265625 -6.09375 C 4.328125 -6.164062 4.382812 -6.234375 4.4375 -6.296875 C 4.488281 -6.359375 4.535156 -6.414062 4.578125 -6.46875 C 4.628906 -6.53125 4.675781 -6.59375 4.71875 -6.65625 C 4.769531 -6.726562 4.820312 -6.804688 4.875 -6.890625 C 4.894531 -6.921875 4.910156 -6.945312 4.921875 -6.96875 C 4.941406 -7 4.960938 -7.023438 4.984375 -7.046875 C 4.992188 -7.296875 4.941406 -7.53125 4.828125 -7.75 C 4.671875 -8 4.476562 -8.203125 4.25 -8.359375 C 4.03125 -8.523438 3.785156 -8.660156 3.515625 -8.765625 C 3.359375 -8.835938 3.195312 -8.898438 3.03125 -8.953125 C 2.875 -9.003906 2.707031 -9.050781 2.53125 -9.09375 C 2.488281 -9.113281 2.421875 -9.132812 2.328125 -9.15625 C 2.273438 -9.132812 2.242188 -9.101562 2.234375 -9.0625 C 2.191406 -8.945312 2.171875 -8.867188 2.171875 -8.828125 C 2.160156 -8.804688 2.148438 -8.757812 2.140625 -8.6875 C 2.128906 -8.59375 2.117188 -8.519531 2.109375 -8.46875 C 2.109375 -8.425781 2.109375 -8.378906 2.109375 -8.328125 C 2.078125 -7.710938 2.007812 -7.109375 1.90625 -6.515625 C 1.8125 -5.929688 1.734375 -5.332031 1.671875 -4.71875 C 1.648438 -4.625 1.632812 -4.523438 1.625 -4.421875 C 1.625 -4.316406 1.625 -4.21875 1.625 -4.125 C 1.695312 -4.113281 1.738281 -4.113281 1.75 -4.125 C 1.84375 -4.144531 1.914062 -4.164062 1.96875 -4.1875 C 2.03125 -4.207031 2.097656 -4.234375 2.171875 -4.265625 Z M 2.171875 -4.265625 "/></g></g></g></g><g fill="#ffffff" fill-opacity="1"><g transform="translate(95.458483, 31.780782)"><g><path d="M 0.1875 -8.1875 C 0.0390625 -8.175781 -0.0820312 -8.226562 -0.1875 -8.34375 C -0.289062 -8.457031 -0.34375 -8.582031 -0.34375 -8.71875 C -0.34375 -8.875 -0.289062 -9 -0.1875 -9.09375 C -0.0820312 -9.1875 0.0390625 -9.238281 0.1875 -9.25 C 0.625 -9.289062 1.054688 -9.3125 1.484375 -9.3125 C 1.921875 -9.3125 2.363281 -9.296875 2.8125 -9.265625 C 2.9375 -9.304688 3.066406 -9.296875 3.203125 -9.234375 C 4.023438 -9.179688 4.859375 -9.078125 5.703125 -8.921875 C 5.835938 -8.898438 5.941406 -8.816406 6.015625 -8.671875 C 6.085938 -8.523438 6.101562 -8.394531 6.0625 -8.28125 C 6.019531 -8.125 5.9375 -8.015625 5.8125 -7.953125 C 5.695312 -7.898438 5.5625 -7.882812 5.40625 -7.90625 C 5.070312 -7.96875 4.738281 -8.019531 4.40625 -8.0625 C 4.082031 -8.101562 3.753906 -8.140625 3.421875 -8.171875 C 3.296875 -7.546875 3.222656 -6.925781 3.203125 -6.3125 C 3.179688 -5.695312 3.203125 -5.066406 3.265625 -4.421875 C 3.328125 -3.773438 3.414062 -3.128906 3.53125 -2.484375 C 3.644531 -1.847656 3.765625 -1.207031 3.890625 -0.5625 C 3.910156 -0.40625 3.890625 -0.265625 3.828125 -0.140625 C 3.773438 -0.0234375 3.675781 0.0507812 3.53125 0.09375 C 3.394531 0.132812 3.257812 0.117188 3.125 0.046875 C 2.988281 -0.015625 2.90625 -0.117188 2.875 -0.265625 C 2.738281 -0.984375 2.601562 -1.691406 2.46875 -2.390625 C 2.34375 -3.097656 2.25 -3.804688 2.1875 -4.515625 C 2.132812 -5.148438 2.117188 -5.773438 2.140625 -6.390625 C 2.171875 -7.003906 2.242188 -7.617188 2.359375 -8.234375 C 1.628906 -8.265625 0.90625 -8.25 0.1875 -8.1875 Z M 0.1875 -8.1875 "/></g></g></g><g fill="#ffffff" fill-opacity="1"><g transform="translate(101.007615, 31.780782)"><g><path d="M 0.75 -4.515625 C 0.75 -5.273438 0.738281 -6.019531 0.71875 -6.75 C 0.695312 -7.488281 0.597656 -8.226562 0.421875 -8.96875 C 0.378906 -9.132812 0.398438 -9.269531 0.484375 -9.375 C 0.578125 -9.488281 0.6875 -9.5625 0.8125 -9.59375 C 0.9375 -9.632812 1.0625 -9.628906 1.1875 -9.578125 C 1.3125 -9.523438 1.398438 -9.410156 1.453125 -9.234375 C 1.628906 -8.484375 1.726562 -7.726562 1.75 -6.96875 C 1.769531 -6.207031 1.773438 -5.4375 1.765625 -4.65625 C 2.035156 -4.625 2.304688 -4.59375 2.578125 -4.5625 C 2.859375 -4.53125 3.132812 -4.507812 3.40625 -4.5 C 3.675781 -4.488281 3.945312 -4.488281 4.21875 -4.5 C 4.488281 -4.507812 4.757812 -4.550781 5.03125 -4.625 C 5.09375 -4.65625 5.164062 -4.660156 5.25 -4.640625 C 5.28125 -5.035156 5.316406 -5.425781 5.359375 -5.8125 C 5.398438 -6.195312 5.425781 -6.585938 5.4375 -6.984375 C 5.457031 -7.410156 5.445312 -7.832031 5.40625 -8.25 C 5.375 -8.664062 5.335938 -9.082031 5.296875 -9.5 C 5.273438 -9.644531 5.320312 -9.769531 5.4375 -9.875 C 5.550781 -9.976562 5.679688 -10.03125 5.828125 -10.03125 C 5.972656 -10.03125 6.085938 -9.976562 6.171875 -9.875 C 6.265625 -9.769531 6.320312 -9.644531 6.34375 -9.5 C 6.382812 -9.082031 6.425781 -8.664062 6.46875 -8.25 C 6.507812 -7.832031 6.519531 -7.410156 6.5 -6.984375 C 6.476562 -6.554688 6.441406 -6.140625 6.390625 -5.734375 C 6.347656 -5.335938 6.316406 -4.929688 6.296875 -4.515625 C 6.253906 -3.816406 6.222656 -3.117188 6.203125 -2.421875 C 6.179688 -1.734375 6.195312 -1.046875 6.25 -0.359375 C 6.257812 -0.179688 6.207031 -0.0507812 6.09375 0.03125 C 5.988281 0.113281 5.867188 0.15625 5.734375 0.15625 C 5.609375 0.15625 5.488281 0.113281 5.375 0.03125 C 5.257812 -0.0507812 5.195312 -0.179688 5.1875 -0.359375 C 5.144531 -0.890625 5.125 -1.421875 5.125 -1.953125 C 5.132812 -2.492188 5.15625 -3.035156 5.1875 -3.578125 C 4.90625 -3.503906 4.617188 -3.460938 4.328125 -3.453125 C 4.046875 -3.441406 3.765625 -3.441406 3.484375 -3.453125 C 3.203125 -3.460938 2.914062 -3.484375 2.625 -3.515625 C 2.34375 -3.546875 2.0625 -3.578125 1.78125 -3.609375 C 1.789062 -3.109375 1.8125 -2.613281 1.84375 -2.125 C 1.882812 -1.644531 1.96875 -1.160156 2.09375 -0.671875 C 2.132812 -0.503906 2.113281 -0.363281 2.03125 -0.25 C 1.945312 -0.144531 1.84375 -0.0703125 1.71875 -0.03125 C 1.59375 0 1.460938 -0.0078125 1.328125 -0.0625 C 1.203125 -0.113281 1.125 -0.222656 1.09375 -0.390625 C 0.9375 -0.960938 0.835938 -1.53125 0.796875 -2.09375 C 0.765625 -2.664062 0.75 -3.242188 0.75 -3.828125 C 0.675781 -3.929688 0.640625 -4.046875 0.640625 -4.171875 C 0.640625 -4.304688 0.675781 -4.421875 0.75 -4.515625 Z M 0.75 -4.515625 "/></g></g></g><g clip-path="url(#b8b28f3d26)"><g fill="#7effe4" fill-opacity="1"><g transform="translate(108.550697, 31.780782)"><g><path d="M 1.3125 -0.921875 C 1.425781 -0.859375 1.515625 -0.753906 1.578125 -0.609375 C 1.640625 -0.460938 1.648438 -0.332031 1.609375 -0.21875 C 1.554688 -0.0625 1.46875 0.0507812 1.34375 0.125 C 1.238281 0.226562 1.113281 0.273438 0.96875 0.265625 C 0.820312 0.265625 0.695312 0.21875 0.59375 0.125 C 0.457031 0.0078125 0.375 -0.078125 0.34375 -0.140625 C 0.269531 -0.265625 0.25 -0.390625 0.28125 -0.515625 C 0.3125 -0.640625 0.378906 -0.742188 0.484375 -0.828125 C 0.503906 -0.847656 0.523438 -0.867188 0.546875 -0.890625 C 0.578125 -0.910156 0.609375 -0.929688 0.640625 -0.953125 C 0.710938 -0.984375 0.753906 -1 0.765625 -1 C 0.785156 -1 0.835938 -1.007812 0.921875 -1.03125 C 0.992188 -1.03125 1.050781 -1.019531 1.09375 -1 C 1.175781 -0.988281 1.25 -0.960938 1.3125 -0.921875 Z M 1.3125 -0.921875 "/></g></g></g></g></svg>